<svg viewBox="0 0 2296 678" fill="none" xmlns="http://www.w3.org/2000/svg">
<path d="M1348.17 181.995C1215.88 181.995 1108.21 289.544 1108.21 421.675V437.574C1108.21 569.705 1215.88 677.254 1348.17 677.254C1480.46 677.254 1588.14 569.705 1588.14 437.574V421.675C1588.14 289.544 1480.46 181.995 1348.17 181.995ZM1534.77 437.574C1534.77 540.313 1451.03 623.814 1348.31 623.814C1245.58 623.814 1161.84 540.179 1161.84 437.574V421.675C1161.84 318.936 1245.58 235.436 1348.31 235.436C1451.03 235.436 1534.77 319.07 1534.77 421.675V437.574Z" fill="white" fill-opacity="0.1"/>
<path d="M2079.04 181.999C1955.85 179.995 1854.99 284.738 1854.99 407.918V646.93C1854.99 652.408 1859.41 656.817 1864.89 656.817H1898.73C1904.22 656.817 1908.63 652.408 1908.63 646.93V406.983C1908.63 320.276 1972.97 244.391 2059.38 236.241C2158.63 226.889 2242.36 304.912 2242.36 402.173V647.064C2242.36 652.541 2246.78 656.95 2252.26 656.95H2286.1C2291.59 656.95 2296 652.541 2296 647.064V402.173C2296 282.066 2199.16 184.137 2079.44 182.133L2079.04 181.999Z" fill="white" fill-opacity="0.1"/>
<path d="M230.737 182.131C100.855 187.074 0 297.829 0 427.555V431.43C0 558.083 95.9063 667.503 222.444 676.587C304.84 682.466 379.077 646.527 426.562 588.01V655.479C426.562 660.956 431.11 665.499 436.594 665.499H470.035C475.519 665.499 480.067 660.956 480.067 655.479V421.543C480.067 286.339 367.306 176.787 230.737 181.997V182.131ZM426.562 437.575C426.562 540.315 342.828 623.815 240.1 623.815C137.372 623.815 53.638 540.181 53.638 437.575V421.677C53.638 318.938 137.372 235.437 240.1 235.437C342.828 235.437 426.562 319.071 426.562 421.677V437.575Z" fill="white" fill-opacity="0.1"/>
<path d="M822.226 194.69H788.518C783.052 194.69 778.62 199.116 778.62 204.576V655.746C778.62 661.206 783.052 665.633 788.518 665.633H822.226C827.693 665.633 832.124 661.206 832.124 655.746V204.576C832.124 199.116 827.693 194.69 822.226 194.69Z" fill="white" fill-opacity="0.1"/>
<path d="M805.372 109.052C835.439 109.052 859.813 84.7072 859.813 54.6764C859.813 24.6456 835.439 0.30085 805.372 0.30085C775.306 0.30085 750.932 24.6456 750.932 54.6764C750.932 84.7072 775.306 109.052 805.372 109.052Z" fill="white" fill-opacity="0.1"/>
</svg>
