<svg viewBox="0 0 371 371" fill="none" xmlns="http://www.w3.org/2000/svg">
<path d="M301.275 40.8473C299.952 38.5564 297.773 36.8848 295.218 36.2L165.12 1.34C162.564 0.655047 159.84 1.01373 157.548 2.33713L40.84 69.7312C38.5487 71.0543 36.8767 73.2334 36.1919 75.7892L1.34 205.86C0.655183 208.416 1.01359 211.139 2.33638 213.431L69.7123 330.151C71.0354 332.443 73.2148 334.115 75.771 334.8L205.867 369.66C208.423 370.345 211.147 369.986 213.439 368.663L330.147 301.269C332.439 299.946 334.111 297.767 334.795 295.211L369.66 165.092C370.345 162.536 369.986 159.812 368.662 157.52L301.275 40.8473ZM262.984 240.118C262.299 242.673 260.627 244.85 258.337 246.173L201.655 278.904C199.364 280.227 196.64 280.586 194.084 279.901L130.891 262.968C128.335 262.283 126.155 260.611 124.832 258.319L92.1112 201.634C90.7884 199.342 90.43 196.619 91.1148 194.063L108.054 130.845C108.739 128.289 110.411 126.11 112.702 124.787L169.382 92.0571C171.673 90.7337 174.397 90.375 176.953 91.0599L240.17 107.999C242.727 108.684 244.906 110.357 246.229 112.649L278.949 169.332C280.273 171.625 280.631 174.349 279.945 176.906L262.984 240.118Z" stroke="#54F2F2" stroke-width="2" stroke-miterlimit="10"/>
<g clip-path="url(#clip0_1_874)">
<path fill-rule="evenodd" clip-rule="evenodd" d="M186 151.034C166.663 151.034 151 166.697 151 186.034C151 201.522 161.019 214.603 174.931 219.24C176.681 219.547 177.337 218.497 177.337 217.578C177.337 216.747 177.294 213.99 177.294 211.059C168.5 212.678 166.225 208.915 165.525 206.947C165.131 205.94 163.425 202.834 161.938 202.003C160.713 201.347 158.963 199.728 161.894 199.684C164.65 199.64 166.619 202.222 167.275 203.272C170.425 208.565 175.456 207.078 177.469 206.159C177.775 203.884 178.694 202.353 179.7 201.478C171.913 200.603 163.775 197.584 163.775 184.197C163.775 180.39 165.131 177.24 167.363 174.79C167.013 173.915 165.788 170.328 167.712 165.515C167.712 165.515 170.644 164.597 177.337 169.103C180.138 168.315 183.112 167.922 186.088 167.922C189.062 167.922 192.038 168.315 194.838 169.103C201.531 164.553 204.463 165.515 204.463 165.515C206.388 170.328 205.163 173.915 204.813 174.79C207.044 177.24 208.4 180.347 208.4 184.197C208.4 197.628 200.219 200.603 192.431 201.478C193.7 202.572 194.794 204.672 194.794 207.953C194.794 212.634 194.75 216.397 194.75 217.578C194.75 218.497 195.406 219.59 197.156 219.24C204.104 216.895 210.142 212.429 214.419 206.472C218.696 200.516 220.998 193.368 221 186.034C221 166.697 205.338 151.034 186 151.034Z" fill="#54F2F2"/>
</g>
<defs>
<clipPath id="clip0_1_874">
<rect width="70" height="70" fill="white" transform="translate(151 151.034)"/>
</clipPath>
</defs>
</svg>
