<svg viewBox="0 0 78 77" fill="none" xmlns="http://www.w3.org/2000/svg">
<path d="M64.7227 11.627C64.1358 10.6076 63.2081 9.82775 62.103 9.42466L40.7189 1.62495C39.6123 1.22132 38.3988 1.22135 37.2922 1.62501L15.9098 9.42498C14.8053 9.82787 13.8781 10.6071 13.2911 11.6257L1.90703 31.3803C1.32108 32.3971 1.11145 33.5876 1.31484 34.7433L5.26809 57.2081C5.47164 58.3648 6.07588 59.4129 6.97487 60.1687L24.4107 74.8272C25.3117 75.5847 26.4511 76 27.6282 76H50.3821C51.5597 76 52.6995 75.5844 53.6007 74.8263L71.026 60.1687C71.9244 59.4129 72.5283 58.365 72.7317 57.2087L76.6854 34.7368C76.8886 33.5816 76.6793 32.3918 76.0941 31.3754L64.7227 11.627ZM56.7615 47.9662C56.5577 49.1242 55.9523 50.1734 55.0517 50.9293L47.287 57.4465C46.3864 58.2024 45.2483 58.6167 44.0725 58.6167H33.9385C32.7628 58.6167 31.6246 58.2024 30.7241 57.4465L22.9594 50.9293C22.0587 50.1734 21.4533 49.1242 21.2495 47.9662L19.4876 37.9547C19.2841 36.7987 19.4938 35.6079 20.0801 34.591L25.1539 25.7892C25.7409 24.7709 26.6678 23.992 27.7719 23.5891L37.292 20.1157C38.3987 19.7119 39.6124 19.7119 40.7192 20.1156L50.2412 23.589C51.3458 23.9919 52.273 24.7712 52.86 25.7899L57.9315 34.5912C58.5174 35.608 58.727 36.7985 58.5236 37.9542L56.7615 47.9662Z" stroke="#D5FF2F" stroke-width="2" stroke-miterlimit="10"/>
</svg>
