<svg viewBox="0 0 173 173" fill="none" xmlns="http://www.w3.org/2000/svg">
<path d="M113.797 3.92337C111.275 1.40181 107.601 0.417314 104.157 1.34053L28.643 21.583C25.1987 22.5063 22.5083 25.1973 21.5846 28.6428L1.34098 104.156C0.416674 107.603 1.4021 111.283 3.92577 113.806L59.1975 169.076C61.7195 171.598 65.3944 172.583 68.8386 171.659L144.352 151.417C147.796 150.494 150.487 147.803 151.41 144.358L171.659 68.8436C172.583 65.3954 171.598 61.7157 169.074 59.192L113.797 3.92337ZM122.716 115.669C121.793 119.114 119.102 121.805 115.658 122.728L79.3276 132.467C75.8836 133.39 72.2088 132.406 69.6869 129.884L43.1041 103.304C40.5801 100.781 39.5946 97.1011 40.5191 93.653L50.2564 57.3373C51.1801 53.892 53.8705 51.2012 57.3146 50.278L93.6451 40.5391C97.0892 39.6159 100.764 40.6004 103.286 43.122L129.869 69.7016C132.393 72.2253 133.378 75.9049 132.454 79.353L122.716 115.669Z" stroke="#54F2F2" stroke-width="2" stroke-miterlimit="10"/>
<g clip-path="url(#clip0_1_888)">
<path d="M87.3688 94.4267C86.33 92.3811 85.1113 90.3148 82.7319 90.3148C82.2781 90.3148 81.8244 90.3898 81.4063 90.5811L80.6 88.9629C81.5844 88.1192 83.1744 87.4479 85.22 87.4479C88.4019 87.4479 90.035 88.9817 91.3325 90.9354C92.1013 89.2667 92.4669 87.0111 92.4669 84.2154C92.4669 77.2329 90.2825 73.6479 85.1825 73.6479C80.1575 73.6479 77.9844 77.2329 77.9844 84.2154C77.9844 91.1604 80.1575 94.7079 85.1844 94.7079C85.9813 94.7079 86.705 94.6217 87.3706 94.4267H87.3688ZM88.6156 96.8642C87.4965 97.1648 86.3431 97.3186 85.1844 97.3217C78.4888 97.3217 71.9375 91.9817 71.9375 84.2154C71.9375 76.3761 78.4906 71.0342 85.1825 71.0342C91.9888 71.0342 98.4763 76.3367 98.4763 84.2154C98.4763 88.5973 96.4325 92.1579 93.4606 94.4604C94.4206 95.8986 95.4106 96.8548 96.785 96.8548C98.2888 96.8548 98.8944 95.6923 98.9956 94.7829H100.951C101.066 95.9961 100.46 101.034 94.9925 101.034C91.6794 101.034 89.93 99.1142 88.6175 96.8642H88.6156Z" fill="#54F2F2"/>
</g>
<defs>
<clipPath id="clip0_1_888">
<rect width="30" height="30" fill="white" transform="translate(71 71.0342)"/>
</clipPath>
</defs>
</svg>
