<svg viewBox="0 0 196 190" fill="none" xmlns="http://www.w3.org/2000/svg">
<path d="M176.86 42.1274C176.183 39.1601 174.19 36.663 171.447 35.3432L102.336 2.08656C99.5958 0.767884 96.4042 0.767884 93.6639 2.08656L24.5525 35.3432C21.8098 36.663 19.8175 39.1601 19.1397 42.1274L2.07306 116.846C1.395 119.814 2.10647 122.93 4.00585 125.31L51.8307 185.238C53.7282 187.615 56.6048 189 59.6468 189H136.353C139.395 189 142.272 187.615 144.169 185.238L191.994 125.31C193.894 122.93 194.605 119.814 193.927 116.846L176.86 42.1274ZM124.136 143.681C122.239 146.053 119.365 147.434 116.328 147.434H79.6781C76.6369 147.434 73.761 146.05 71.8635 143.673L49.0235 115.068C47.1233 112.688 46.4112 109.572 47.0889 106.603L55.2348 70.9179C55.9125 67.949 57.9061 65.4507 60.6506 64.1311L93.6944 48.2427C96.4332 46.9258 99.6223 46.9258 102.361 48.2427L135.405 64.1311C138.149 65.4507 140.143 67.949 140.821 70.9179L148.965 106.597C149.644 109.569 148.929 112.689 147.025 115.07L124.136 143.681Z" stroke="#FF2473" stroke-width="2" stroke-miterlimit="10"/>
<g clip-path="url(#clip0_1_866)">
<path fill-rule="evenodd" clip-rule="evenodd" d="M115 94.5342C115 104.199 107.164 112.034 97.5 112.034C87.8356 112.034 80 104.199 80 94.5342C80 84.8698 87.8356 77.0342 97.5 77.0342C107.164 77.0342 115 84.8698 115 94.5342ZM108.712 93.1604C108.995 93.5644 109.155 94.0413 109.173 94.5342C109.18 95.0164 109.051 95.4909 108.8 95.9028C108.549 96.3147 108.187 96.6472 107.755 96.8617C107.775 97.1183 107.775 97.375 107.755 97.6317C107.755 101.552 103.188 104.737 97.5525 104.737C91.9175 104.737 87.35 101.552 87.35 97.6317C87.3303 97.3754 87.3303 97.118 87.35 96.8617C87.0163 96.7055 86.7204 96.4788 86.4826 96.1974C86.2448 95.9159 86.0707 95.5863 85.9724 95.2312C85.8741 94.8761 85.8539 94.504 85.9131 94.1403C85.9723 93.7766 86.1095 93.4301 86.3154 93.1245C86.5212 92.8189 86.7908 92.5615 87.1056 92.37C87.4204 92.1785 87.7729 92.0574 88.1389 92.0151C88.505 91.9728 88.8758 92.0102 89.226 92.1249C89.5762 92.2395 89.8974 92.4286 90.1675 92.6792C92.184 91.3116 94.5563 90.5634 96.9925 90.5267L98.2875 84.4542C98.302 84.3839 98.3304 84.3172 98.3709 84.2579C98.4114 84.1986 98.4633 84.148 98.5235 84.1089C98.5838 84.0699 98.6511 84.0432 98.7218 84.0303C98.7924 84.0175 98.8649 84.0188 98.935 84.0342L103.222 84.8917C103.432 84.5319 103.763 84.2586 104.155 84.1208C104.548 83.9829 104.977 83.9896 105.365 84.1395C105.754 84.2895 106.076 84.5729 106.274 84.9389C106.472 85.305 106.533 85.7297 106.447 86.1368C106.36 86.5438 106.131 86.9067 105.801 87.1601C105.47 87.4136 105.061 87.5411 104.645 87.5197C104.229 87.4983 103.835 87.3295 103.533 87.0435C103.23 86.7575 103.04 86.373 102.995 85.9592L99.25 85.1717L98.1125 90.6317C100.519 90.6833 102.859 91.4309 104.85 92.7842C105.116 92.5287 105.434 92.3337 105.782 92.2128C106.13 92.0918 106.501 92.0477 106.867 92.0834C107.234 92.1192 107.589 92.2339 107.908 92.4199C108.226 92.6058 108.5 92.8584 108.712 93.1604ZM91.9671 95.3115C91.8393 95.5026 91.7505 95.717 91.7056 95.9425C91.6608 96.1679 91.6607 96.4 91.7056 96.6255C91.7961 97.0809 92.0638 97.4816 92.4498 97.7396C92.8358 97.9976 93.3085 98.0917 93.7638 98.0011C93.9893 97.9563 94.2037 97.8675 94.3949 97.7398C94.586 97.6121 94.7502 97.448 94.8779 97.2569C95.1359 96.8709 95.23 96.3982 95.1394 95.9429C95.0489 95.4875 94.7812 95.0867 94.3952 94.8288C94.0092 94.5708 93.5365 94.4767 93.0812 94.5672C92.6258 94.6578 92.2251 94.9255 91.9671 95.3115ZM97.5175 102.444C99.0706 102.508 100.599 102.103 101.84 101.167C101.933 101.076 101.986 100.953 101.988 100.823C101.989 100.693 101.939 100.568 101.849 100.475C101.804 100.429 101.751 100.393 101.692 100.367C101.633 100.342 101.569 100.329 101.505 100.328C101.375 100.326 101.25 100.376 101.158 100.467C100.095 101.229 98.8051 101.605 97.5 101.534C96.1965 101.592 94.9122 101.203 93.86 100.432C93.7693 100.357 93.6542 100.319 93.5371 100.325C93.4199 100.331 93.3091 100.38 93.2261 100.463C93.1432 100.546 93.0941 100.657 93.0883 100.774C93.0826 100.891 93.1206 101.006 93.195 101.097C94.4366 102.032 95.9642 102.509 97.5175 102.444ZM100.552 97.8096C100.841 98.0021 101.162 98.1742 101.508 98.1742C101.745 98.177 101.98 98.1314 102.199 98.0402C102.419 97.9491 102.617 97.8142 102.782 97.6439C102.948 97.4737 103.077 97.2715 103.161 97.0497C103.246 96.828 103.285 96.5913 103.275 96.3542C103.275 96.0519 103.196 95.7548 103.047 95.4918C102.898 95.2289 102.684 95.009 102.424 94.8536C102.165 94.6983 101.87 94.6127 101.568 94.6054C101.266 94.598 100.967 94.669 100.7 94.8115C100.433 94.954 100.208 95.1631 100.047 95.4185C99.8848 95.6739 99.792 95.9668 99.7771 96.2687C99.7622 96.5706 99.8258 96.8713 99.9617 97.1413C100.098 97.4113 100.301 97.6416 100.552 97.8096Z" fill="#FF2473"/>
</g>
<defs>
<clipPath id="clip0_1_866">
<rect width="35" height="35" fill="white" transform="translate(80 77.0342)"/>
</clipPath>
</defs>
</svg>
