<svg viewBox="0 0 372 324" fill="none" xmlns="http://www.w3.org/2000/svg">
<path d="M281.872 5.99752C280.086 2.9049 276.785 1 273.214 1H98.7749C95.2031 1 91.9024 2.90512 90.1158 5.998L2.88945 156.998C1.10158 160.093 1.10158 163.907 2.88944 167.002L90.1158 318.002C91.9024 321.095 95.2031 323 98.7749 323H273.214C276.785 323 280.086 321.095 281.872 318.002L369.11 167.002C370.898 163.907 370.898 160.093 369.11 156.998L281.872 5.99752ZM239.795 245.174C238.009 248.266 234.708 250.171 231.137 250.171H140.804C137.233 250.171 133.932 248.266 132.145 245.174L86.9847 167.002C85.1966 163.907 85.1966 160.093 86.9847 156.998L132.145 78.8265C133.932 75.7338 137.233 73.8289 140.804 73.8289H231.136C234.708 73.8289 238.009 75.7338 239.795 78.8265L284.956 156.998C286.744 160.093 286.744 163.907 284.956 167.002L239.795 245.174Z" stroke="#D5FF2F" stroke-width="2" stroke-miterlimit="10"/>
<g clip-path="url(#clip0_1_884)">
<path d="M210.258 140.136C205.795 138.123 201.012 136.636 196.01 135.79C195.965 135.781 195.919 135.787 195.878 135.806C195.837 135.824 195.802 135.856 195.78 135.895C195.167 136.971 194.485 138.374 194.006 139.482C188.701 138.69 183.308 138.69 178.003 139.482C177.47 138.254 176.869 137.056 176.203 135.895C176.18 135.855 176.146 135.823 176.105 135.803C176.064 135.784 176.018 135.777 175.972 135.784C170.973 136.63 166.19 138.117 161.725 140.133C161.686 140.149 161.654 140.176 161.631 140.212C152.555 153.555 150.067 166.569 151.289 179.42C151.292 179.452 151.302 179.482 151.317 179.51C151.333 179.537 151.354 179.561 151.379 179.581C156.677 183.438 162.586 186.376 168.859 188.272C168.902 188.286 168.949 188.286 168.993 188.272C169.037 188.259 169.075 188.232 169.104 188.197C170.454 186.391 171.65 184.476 172.68 182.471C172.694 182.444 172.702 182.414 172.704 182.383C172.705 182.352 172.7 182.321 172.689 182.292C172.678 182.263 172.66 182.237 172.638 182.216C172.616 182.194 172.589 182.178 172.56 182.168C170.676 181.458 168.85 180.602 167.1 179.607C167.069 179.589 167.042 179.564 167.023 179.533C167.004 179.502 166.992 179.467 166.99 179.431C166.988 179.395 166.995 179.359 167.01 179.326C167.025 179.293 167.048 179.264 167.077 179.242C167.444 178.971 167.812 178.688 168.162 178.405C168.193 178.38 168.231 178.364 168.271 178.358C168.311 178.353 168.352 178.359 168.389 178.376C179.843 183.521 192.248 183.521 203.567 178.376C203.604 178.358 203.645 178.352 203.686 178.356C203.727 178.361 203.765 178.377 203.797 178.402C204.147 178.688 204.512 178.971 204.883 179.242C204.912 179.264 204.935 179.292 204.951 179.325C204.966 179.357 204.974 179.393 204.972 179.429C204.97 179.465 204.959 179.501 204.941 179.532C204.922 179.563 204.896 179.588 204.865 179.607C203.121 180.61 201.307 181.459 199.402 182.165C199.373 182.175 199.346 182.192 199.324 182.214C199.302 182.236 199.284 182.262 199.273 182.291C199.262 182.32 199.257 182.351 199.258 182.382C199.26 182.413 199.268 182.443 199.283 182.471C200.333 184.475 201.534 186.382 202.855 188.194C202.883 188.231 202.921 188.259 202.965 188.273C203.009 188.288 203.056 188.289 203.1 188.275C209.384 186.384 215.303 183.445 220.606 179.581C220.632 179.563 220.654 179.539 220.67 179.512C220.686 179.485 220.696 179.455 220.7 179.423C222.158 164.566 218.255 151.657 210.348 140.217C210.329 140.18 210.297 140.151 210.258 140.136ZM174.392 171.595C170.944 171.595 168.1 168.477 168.1 164.653C168.1 160.827 170.889 157.712 174.392 157.712C177.921 157.712 180.738 160.853 180.683 164.653C180.683 168.48 177.895 171.595 174.392 171.595ZM197.652 171.595C194.202 171.595 191.361 168.477 191.361 164.653C191.361 160.827 194.146 157.712 197.652 157.712C201.181 157.712 203.999 160.853 203.943 164.653C203.943 168.48 201.184 171.595 197.652 171.595Z" fill="#D5FF2F"/>
</g>
<defs>
<clipPath id="clip0_1_884">
<rect width="70" height="70" fill="white" transform="translate(151 127.034)"/>
</clipPath>
</defs>
</svg>
