<svg viewBox="0 0 102 102" fill="none" xmlns="http://www.w3.org/2000/svg">
<path d="M70.3251 4.35223H31.685L4.35876 31.6769V70.3231L31.685 97.6478H70.3251L97.6479 70.3231V31.6769L70.3251 4.35223Z" fill="#361281" stroke="#D5FF2F" stroke-width="2" stroke-miterlimit="10"/>
<path d="M61.8227 24.8771H40.184L24.8823 40.1799V61.82L40.184 77.1228H61.8227L77.1244 61.82V40.1799L61.8227 24.8771Z" fill="#361281" stroke="#D5FF2F" stroke-width="2" stroke-miterlimit="10"/>
<path d="M40.0719 24.7616L32.0555 4.35223" stroke="#D5FF2F" stroke-width="2" stroke-miterlimit="10"/>
<path d="M61.9384 24.7616L70.3184 4.35223" stroke="#D5FF2F" stroke-width="2" stroke-miterlimit="10"/>
<path d="M32.0555 4.35223L61.9383 24.7616" stroke="#D5FF2F" stroke-width="2" stroke-miterlimit="10"/>
<path d="M24.7667 40.0678L32.0555 4.35223" stroke="#D5FF2F" stroke-width="2" stroke-miterlimit="10"/>
<path d="M4.35876 31.6838L40.0718 24.7617" stroke="#D5FF2F" stroke-width="2" stroke-miterlimit="10"/>
<path d="M24.7667 40.0678L4.35876 31.6838" stroke="#D5FF2F" stroke-width="2" stroke-miterlimit="10"/>
<path d="M61.9384 24.7617L97.648 31.6838" stroke="#D5FF2F" stroke-width="2" stroke-miterlimit="10"/>
<path d="M40.0719 24.7616L70.3184 4.35223" stroke="#D5FF2F" stroke-width="2" stroke-miterlimit="10"/>
<path d="M77.2434 40.0678L70.3184 4.35223" stroke="#D5FF2F" stroke-width="2" stroke-miterlimit="10"/>
<path d="M77.2434 61.9323L97.648 70.3163" stroke="#D5FF2F" stroke-width="2" stroke-miterlimit="10"/>
<path d="M77.2434 40.0677L97.648 70.3163" stroke="#D5FF2F" stroke-width="2" stroke-miterlimit="10"/>
<path d="M97.6479 31.6838L77.24 61.9323" stroke="#D5FF2F" stroke-width="2" stroke-miterlimit="10"/>
<path d="M77.2434 40.0678L97.648 31.6838" stroke="#D5FF2F" stroke-width="2" stroke-miterlimit="10"/>
<path d="M61.9384 77.2384L70.3184 97.6478" stroke="#D5FF2F" stroke-width="2" stroke-miterlimit="10"/>
<path d="M97.6479 70.3163L61.9348 77.2385" stroke="#D5FF2F" stroke-width="2" stroke-miterlimit="10"/>
<path d="M77.2434 61.9323L70.3184 97.6478" stroke="#D5FF2F" stroke-width="2" stroke-miterlimit="10"/>
<path d="M40.4357 77.2384L70.3184 97.6478" stroke="#D5FF2F" stroke-width="2" stroke-miterlimit="10"/>
<path d="M61.9382 77.2384L31.6918 97.6478" stroke="#D5FF2F" stroke-width="2" stroke-miterlimit="10"/>
<path d="M40.0718 77.2384L31.6918 97.6478" stroke="#D5FF2F" stroke-width="2" stroke-miterlimit="10"/>
<path d="M4.35876 70.3163L40.4356 77.2385" stroke="#D5FF2F" stroke-width="2" stroke-miterlimit="10"/>
<path d="M24.7667 61.9323L4.35876 70.3163" stroke="#D5FF2F" stroke-width="2" stroke-miterlimit="10"/>
<path d="M24.7667 40.0677L4.35876 70.3163" stroke="#D5FF2F" stroke-width="2" stroke-miterlimit="10"/>
<path d="M24.7667 61.9323L32.0555 97.6478" stroke="#D5FF2F" stroke-width="2" stroke-miterlimit="10"/>
<path d="M4.35876 31.6838L24.7667 61.9323" stroke="#D5FF2F" stroke-width="2" stroke-miterlimit="10"/>
<path d="M66.6128 4.35226C66.6128 3.68925 66.8094 3.04112 67.1777 2.48985C67.546 1.93857 68.0696 1.5089 68.6821 1.25518C69.2946 1.00145 69.9685 0.935066 70.6188 1.06441C71.269 1.19376 71.8663 1.51303 72.3351 1.98186C72.8039 2.45068 73.1231 3.04799 73.2524 3.69827C73.3818 4.34854 73.3154 5.02257 73.0617 5.63512C72.808 6.24766 72.3784 6.77121 71.8271 7.13957C71.2759 7.50792 70.6278 7.70452 69.9648 7.70452C69.5245 7.70497 69.0884 7.61856 68.6815 7.45026C68.2746 7.28195 67.9049 7.03504 67.5936 6.72367C67.2822 6.41229 67.0353 6.04256 66.867 5.63565C66.6987 5.22873 66.6123 4.79261 66.6128 4.35226Z" fill="#361281"/>
<path d="M66.6128 4.35226C66.6128 3.68925 66.8094 3.04112 67.1777 2.48985C67.546 1.93857 68.0696 1.5089 68.6821 1.25518C69.2946 1.00145 69.9685 0.935066 70.6188 1.06441C71.269 1.19376 71.8663 1.51303 72.3351 1.98186C72.8039 2.45068 73.1231 3.04799 73.2524 3.69827C73.3818 4.34854 73.3154 5.02257 73.0617 5.63512C72.808 6.24766 72.3784 6.77121 71.8271 7.13957C71.2759 7.50792 70.6278 7.70452 69.9648 7.70452C69.5245 7.70497 69.0884 7.61856 68.6815 7.45026C68.2746 7.28195 67.9049 7.03504 67.5936 6.72367C67.2822 6.41229 67.0353 6.04256 66.867 5.63565C66.6987 5.22873 66.6123 4.79261 66.6128 4.35226Z" fill="#361281" stroke="#D5FF2F" stroke-width="2" stroke-miterlimit="10"/>
<path d="M58.5829 24.7617C58.5822 24.0978 58.7784 23.4487 59.1467 22.8964C59.515 22.3441 60.0388 21.9135 60.6519 21.659C61.265 21.4045 61.9397 21.3376 62.5909 21.4667C63.242 21.5957 63.8402 21.9151 64.3098 22.3842C64.7794 22.8534 65.0993 23.4513 65.229 24.1023C65.3588 24.7534 65.2925 25.4283 65.0387 26.0416C64.7848 26.655 64.3547 27.1793 63.8028 27.5481C63.251 27.917 62.6021 28.1139 61.9383 28.1139C61.4978 28.1144 61.0616 28.028 60.6545 27.8597C60.2474 27.6914 59.8775 27.4446 59.5659 27.1333C59.2543 26.8219 59.007 26.4522 58.8384 26.0453C58.6697 25.6384 58.5829 25.2022 58.5829 24.7617Z" fill="#361281"/>
<path d="M58.5829 24.7617C58.5822 24.0978 58.7784 23.4487 59.1467 22.8964C59.515 22.3441 60.0388 21.9135 60.6519 21.659C61.265 21.4045 61.9397 21.3376 62.5909 21.4667C63.242 21.5957 63.8402 21.9151 64.3098 22.3842C64.7794 22.8534 65.0993 23.4513 65.229 24.1023C65.3588 24.7534 65.2925 25.4283 65.0387 26.0416C64.7848 26.655 64.3547 27.1793 63.8028 27.5481C63.251 27.917 62.6021 28.1139 61.9383 28.1139C61.4978 28.1144 61.0616 28.028 60.6545 27.8597C60.2474 27.6914 59.8775 27.4446 59.5659 27.1333C59.2543 26.8219 59.007 26.4522 58.8384 26.0453C58.6697 25.6384 58.5829 25.2022 58.5829 24.7617Z" fill="#361281" stroke="#D5FF2F" stroke-width="2" stroke-miterlimit="10"/>
<path d="M73.8879 40.4315C73.8873 39.7677 74.0835 39.1186 74.4518 38.5663C74.8201 38.014 75.3439 37.5834 75.9569 37.3289C76.57 37.0744 77.2448 37.0074 77.8959 37.1365C78.547 37.2656 79.1452 37.5849 79.6148 38.0541C80.0844 38.5233 80.4043 39.1212 80.5341 39.7722C80.6638 40.4232 80.5976 41.0981 80.3437 41.7115C80.0898 42.3249 79.6598 42.8491 79.1079 43.218C78.556 43.5869 77.9072 43.7838 77.2434 43.7838C76.8029 43.7842 76.3666 43.6978 75.9595 43.5296C75.5525 43.3613 75.1825 43.1144 74.8709 42.8031C74.5593 42.4918 74.3121 42.1221 74.1434 41.7151C73.9747 41.3082 73.8879 40.872 73.8879 40.4315Z" fill="#361281"/>
<path d="M73.8879 40.4315C73.8873 39.7677 74.0835 39.1186 74.4518 38.5663C74.8201 38.014 75.3439 37.5834 75.9569 37.3289C76.57 37.0744 77.2448 37.0074 77.8959 37.1365C78.547 37.2656 79.1452 37.5849 79.6148 38.0541C80.0844 38.5233 80.4043 39.1212 80.5341 39.7722C80.6638 40.4232 80.5976 41.0981 80.3437 41.7115C80.0898 42.3249 79.6598 42.8491 79.1079 43.218C78.556 43.5869 77.9072 43.7838 77.2434 43.7838C76.8029 43.7842 76.3666 43.6978 75.9595 43.5296C75.5525 43.3613 75.1825 43.1144 74.8709 42.8031C74.5593 42.4918 74.3121 42.1221 74.1434 41.7151C73.9747 41.3082 73.8879 40.872 73.8879 40.4315Z" fill="#361281" stroke="#D5FF2F" stroke-width="2" stroke-miterlimit="10"/>
<path d="M73.8879 62.2962C73.8879 61.6325 74.0847 60.9837 74.4534 60.4318C74.8221 59.88 75.3462 59.4499 75.9593 59.1959C76.5724 58.9419 77.2471 58.8755 77.898 59.005C78.5489 59.1345 79.1467 59.454 79.616 59.9233C80.0853 60.3926 80.4049 60.9906 80.5343 61.6415C80.6638 62.2924 80.5973 62.9671 80.3434 63.5803C80.0894 64.1935 79.6593 64.7176 79.1075 65.0863C78.5557 65.455 77.907 65.6518 77.2434 65.6518C76.3535 65.6518 75.5 65.2983 74.8707 64.669C74.2414 64.0397 73.8879 63.1861 73.8879 62.2962Z" fill="#361281"/>
<path d="M73.8879 62.2962C73.8879 61.6325 74.0847 60.9837 74.4534 60.4318C74.8221 59.88 75.3462 59.4499 75.9593 59.1959C76.5724 58.9419 77.2471 58.8755 77.898 59.005C78.5489 59.1345 79.1467 59.454 79.616 59.9233C80.0853 60.3926 80.4049 60.9906 80.5343 61.6415C80.6638 62.2924 80.5973 62.9671 80.3434 63.5803C80.0894 64.1935 79.6593 64.7176 79.1075 65.0863C78.5557 65.455 77.907 65.6518 77.2434 65.6518C76.3535 65.6518 75.5 65.2983 74.8707 64.669C74.2414 64.0397 73.8879 63.1861 73.8879 62.2962Z" fill="#361281" stroke="#D5FF2F" stroke-width="2" stroke-miterlimit="10"/>
<path d="M21.4147 40.4316C21.4147 39.7685 21.6113 39.1204 21.9796 38.5691C22.3479 38.0179 22.8714 37.5882 23.4839 37.3345C24.0964 37.0807 24.7704 37.0144 25.4207 37.1437C26.0709 37.273 26.6682 37.5923 27.137 38.0611C27.6057 38.53 27.925 39.1273 28.0543 39.7776C28.1837 40.4278 28.1173 41.1019 27.8636 41.7144C27.6099 42.327 27.1802 42.8505 26.629 43.2189C26.0778 43.5872 25.4297 43.7838 24.7667 43.7838C24.3264 43.7843 23.8903 43.6979 23.4834 43.5295C23.0765 43.3612 22.7068 43.1143 22.3955 42.803C22.0841 42.4916 21.8372 42.1219 21.6689 41.7149C21.5006 41.308 21.4142 40.8719 21.4147 40.4316Z" fill="#361281"/>
<path d="M21.4147 40.4316C21.4147 39.7685 21.6113 39.1204 21.9796 38.5691C22.3479 38.0179 22.8714 37.5882 23.4839 37.3345C24.0964 37.0807 24.7704 37.0144 25.4207 37.1437C26.0709 37.273 26.6682 37.5923 27.137 38.0611C27.6057 38.53 27.925 39.1273 28.0543 39.7776C28.1837 40.4278 28.1173 41.1019 27.8636 41.7144C27.6099 42.327 27.1802 42.8505 26.629 43.2189C26.0778 43.5872 25.4297 43.7838 24.7667 43.7838C24.3264 43.7843 23.8903 43.6979 23.4834 43.5295C23.0765 43.3612 22.7068 43.1143 22.3955 42.803C22.0841 42.4916 21.8372 42.1219 21.6689 41.7149C21.5006 41.308 21.4142 40.8719 21.4147 40.4316Z" fill="#361281" stroke="#D5FF2F" stroke-width="2" stroke-miterlimit="10"/>
<path d="M21.4147 62.2959C21.4153 61.6331 21.6125 60.9853 21.9812 60.4345C22.35 59.8836 22.8737 59.4545 23.4863 59.2013C24.0989 58.9481 24.7727 58.8822 25.4227 59.0119C26.0728 59.1416 26.6697 59.4612 27.1382 59.9301C27.6066 60.3991 27.9255 60.9964 28.0546 61.6466C28.1836 62.2968 28.1171 62.9706 27.8633 63.583C27.6095 64.1953 27.1798 64.7187 26.6287 65.0869C26.0775 65.4551 25.4295 65.6516 24.7667 65.6516C24.3262 65.6516 23.8901 65.5648 23.4832 65.3961C23.0763 65.2274 22.7066 64.9802 22.3953 64.6685C22.084 64.3569 21.8371 63.9869 21.6689 63.5798C21.5006 63.1727 21.4142 62.7365 21.4147 62.2959Z" fill="#361281"/>
<path d="M21.4147 62.2959C21.4153 61.6331 21.6125 60.9853 21.9812 60.4345C22.35 59.8836 22.8737 59.4545 23.4863 59.2013C24.0989 58.9481 24.7727 58.8822 25.4227 59.0119C26.0728 59.1416 26.6697 59.4612 27.1382 59.9301C27.6066 60.3991 27.9255 60.9964 28.0546 61.6466C28.1836 62.2968 28.1171 62.9706 27.8633 63.583C27.6095 64.1953 27.1798 64.7187 26.6287 65.0869C26.0775 65.4551 25.4295 65.6516 24.7667 65.6516C24.3262 65.6516 23.8901 65.5648 23.4832 65.3961C23.0763 65.2274 22.7066 64.9802 22.3953 64.6685C22.084 64.3569 21.8371 63.9869 21.6689 63.5798C21.5006 63.1727 21.4142 62.7365 21.4147 62.2959Z" fill="#361281" stroke="#D5FF2F" stroke-width="2" stroke-miterlimit="10"/>
<path d="M37.0836 24.7616C37.0836 24.0986 37.2802 23.4505 37.6485 22.8992C38.0169 22.3479 38.5404 21.9183 39.1529 21.6645C39.7654 21.4108 40.4394 21.3444 41.0896 21.4738C41.7398 21.6031 42.3371 21.9224 42.8059 22.3912C43.2747 22.86 43.5939 23.4574 43.7233 24.1076C43.8526 24.7579 43.7862 25.4319 43.5325 26.0445C43.2788 26.657 42.8492 27.1806 42.2979 27.5489C41.7467 27.9173 41.0986 28.1139 40.4356 28.1139C39.5466 28.1139 38.694 27.7607 38.0654 27.132C37.4368 26.5034 37.0836 25.6507 37.0836 24.7616Z" fill="#361281"/>
<path d="M37.0836 24.7616C37.0836 24.0986 37.2802 23.4505 37.6485 22.8992C38.0169 22.3479 38.5404 21.9183 39.1529 21.6645C39.7654 21.4108 40.4394 21.3444 41.0896 21.4738C41.7398 21.6031 42.3371 21.9224 42.8059 22.3912C43.2747 22.86 43.5939 23.4574 43.7233 24.1076C43.8526 24.7579 43.7862 25.4319 43.5325 26.0445C43.2788 26.657 42.8492 27.1806 42.2979 27.5489C41.7467 27.9173 41.0986 28.1139 40.4356 28.1139C39.5466 28.1139 38.694 27.7607 38.0654 27.132C37.4368 26.5034 37.0836 25.6507 37.0836 24.7616Z" fill="#361281" stroke="#D5FF2F" stroke-width="2" stroke-miterlimit="10"/>
<path d="M58.5829 77.2384C58.5822 76.5746 58.7784 75.9254 59.1467 75.3732C59.515 74.8209 60.0388 74.3902 60.6519 74.1357C61.265 73.8812 61.9397 73.8143 62.5909 73.9434C63.242 74.0725 63.8402 74.3918 64.3098 74.861C64.7794 75.3301 65.0993 75.9281 65.229 76.5791C65.3588 77.2301 65.2925 77.905 65.0387 78.5184C64.7848 79.1317 64.3547 79.656 63.8028 80.0249C63.251 80.3938 62.6021 80.5907 61.9383 80.5907C61.049 80.5907 60.196 80.2376 59.5669 79.609C58.9377 78.9804 58.5838 78.1278 58.5829 77.2384Z" fill="#361281"/>
<path d="M58.5829 77.2384C58.5822 76.5746 58.7784 75.9254 59.1467 75.3732C59.515 74.8209 60.0388 74.3902 60.6519 74.1357C61.265 73.8812 61.9397 73.8143 62.5909 73.9434C63.242 74.0725 63.8402 74.3918 64.3098 74.861C64.7794 75.3301 65.0993 75.9281 65.229 76.5791C65.3588 77.2301 65.2925 77.905 65.0387 78.5184C64.7848 79.1317 64.3547 79.656 63.8028 80.0249C63.251 80.3938 62.6021 80.5907 61.9383 80.5907C61.049 80.5907 60.196 80.2376 59.5669 79.609C58.9377 78.9804 58.5838 78.1278 58.5829 77.2384Z" fill="#361281" stroke="#D5FF2F" stroke-width="2" stroke-miterlimit="10"/>
<path d="M37.0836 77.2384C37.0836 76.5754 37.2802 75.9272 37.6485 75.376C38.0169 74.8247 38.5404 74.395 39.1529 74.1413C39.7654 73.8876 40.4394 73.8212 41.0896 73.9505C41.7398 74.0799 42.3371 74.3991 42.8059 74.868C43.2747 75.3368 43.5939 75.9341 43.7233 76.5844C43.8526 77.2346 43.7862 77.9087 43.5325 78.5212C43.2788 79.1338 42.8492 79.6573 42.2979 80.0257C41.7467 80.394 41.0986 80.5906 40.4356 80.5906C39.5469 80.5897 38.6948 80.2363 38.0664 79.6078C37.438 78.9793 37.0845 78.1272 37.0836 77.2384Z" fill="#361281"/>
<path d="M37.0836 77.2384C37.0836 76.5754 37.2802 75.9272 37.6485 75.376C38.0169 74.8247 38.5404 74.395 39.1529 74.1413C39.7654 73.8876 40.4394 73.8212 41.0896 73.9505C41.7398 74.0799 42.3371 74.3991 42.8059 74.868C43.2747 75.3368 43.5939 75.9341 43.7233 76.5844C43.8526 77.2346 43.7862 77.9087 43.5325 78.5212C43.2788 79.1338 42.8492 79.6573 42.2979 80.0257C41.7467 80.394 41.0986 80.5906 40.4356 80.5906C39.5469 80.5897 38.6948 80.2363 38.0664 79.6078C37.438 78.9793 37.0845 78.1272 37.0836 77.2384Z" fill="#361281" stroke="#D5FF2F" stroke-width="2" stroke-miterlimit="10"/>
<path d="M28.7035 4.35226C28.7035 3.68925 28.9001 3.04112 29.2684 2.48985C29.6367 1.93857 30.1603 1.5089 30.7728 1.25518C31.3853 1.00145 32.0593 0.935066 32.7095 1.06441C33.3597 1.19376 33.957 1.51303 34.4258 1.98186C34.8946 2.45068 35.2138 3.04799 35.3432 3.69827C35.4725 4.34854 35.4061 5.02257 35.1524 5.63512C34.8987 6.24766 34.4691 6.77121 33.9178 7.13957C33.3666 7.50792 32.7185 7.70452 32.0555 7.70452C31.6152 7.70497 31.1791 7.61856 30.7722 7.45026C30.3653 7.28195 29.9956 7.03504 29.6843 6.72367C29.3729 6.41229 29.126 6.04256 28.9577 5.63565C28.7894 5.22873 28.703 4.79261 28.7035 4.35226Z" fill="#361281"/>
<path d="M28.7035 4.35226C28.7035 3.68925 28.9001 3.04112 29.2684 2.48985C29.6367 1.93857 30.1603 1.5089 30.7728 1.25518C31.3853 1.00145 32.0593 0.935066 32.7095 1.06441C33.3597 1.19376 33.957 1.51303 34.4258 1.98186C34.8946 2.45068 35.2138 3.04799 35.3432 3.69827C35.4725 4.34854 35.4061 5.02257 35.1524 5.63512C34.8987 6.24766 34.4691 6.77121 33.9178 7.13957C33.3666 7.50792 32.7185 7.70452 32.0555 7.70452C31.6152 7.70497 31.1791 7.61856 30.7722 7.45026C30.3653 7.28195 29.9956 7.03504 29.6843 6.72367C29.3729 6.41229 29.126 6.04256 28.9577 5.63565C28.7894 5.22873 28.703 4.79261 28.7035 4.35226Z" fill="#361281" stroke="#D5FF2F" stroke-width="2" stroke-miterlimit="10"/>
<path d="M1 31.6837C1 31.0198 1.19687 30.3709 1.56572 29.819C1.93457 29.2671 2.45882 28.837 3.07215 28.5831C3.68547 28.3292 4.3603 28.263 5.01129 28.3927C5.66227 28.5225 6.26015 28.8424 6.72928 29.3121C7.19841 29.7817 7.51772 30.3799 7.64681 31.0311C7.77589 31.6823 7.70896 32.3571 7.45448 32.9702C7.19999 33.5833 6.76938 34.1071 6.21713 34.4754C5.66489 34.8438 5.01581 35.04 4.35203 35.0393C3.4627 35.0384 2.61011 34.6845 1.98158 34.0553C1.35305 33.4261 1 32.5731 1 31.6837Z" fill="#361281"/>
<path d="M1 31.6837C1 31.0198 1.19687 30.3709 1.56572 29.819C1.93457 29.2671 2.45882 28.837 3.07215 28.5831C3.68547 28.3292 4.3603 28.263 5.01129 28.3927C5.66227 28.5225 6.26015 28.8424 6.72928 29.3121C7.19841 29.7817 7.51772 30.3799 7.64681 31.0311C7.77589 31.6823 7.70896 32.3571 7.45448 32.9702C7.19999 33.5833 6.76938 34.1071 6.21713 34.4754C5.66489 34.8438 5.01581 35.04 4.35203 35.0393C3.4627 35.0384 2.61011 34.6845 1.98158 34.0553C1.35305 33.4261 1 32.5731 1 31.6837Z" fill="#361281" stroke="#D5FF2F" stroke-width="2" stroke-miterlimit="10"/>
<path d="M1 71.4076C0.999329 70.7437 1.19564 70.0944 1.56408 69.5421C1.93252 68.9897 2.45654 68.5591 3.0698 68.3047C3.68307 68.0503 4.35801 67.9835 5.00921 68.1129C5.66042 68.2423 6.2586 68.5619 6.72807 69.0314C7.19754 69.5009 7.5172 70.0992 7.64656 70.7504C7.77592 71.4017 7.70917 72.0767 7.45479 72.69C7.2004 73.3033 6.7698 73.8273 6.21749 74.1958C5.66517 74.5643 5.01596 74.7606 4.35203 74.7599C3.46301 74.7599 2.61042 74.4067 1.98179 73.7781C1.35317 73.1494 1 72.2967 1 71.4076Z" fill="#361281"/>
<path d="M1 71.4076C0.999329 70.7437 1.19564 70.0944 1.56408 69.5421C1.93252 68.9897 2.45654 68.5591 3.0698 68.3047C3.68307 68.0503 4.35801 67.9835 5.00921 68.1129C5.66042 68.2423 6.2586 68.5619 6.72807 69.0314C7.19754 69.5009 7.5172 70.0992 7.64656 70.7504C7.77592 71.4017 7.70917 72.0767 7.45479 72.69C7.2004 73.3033 6.7698 73.8273 6.21749 74.1958C5.66517 74.5643 5.01596 74.7606 4.35203 74.7599C3.46301 74.7599 2.61042 74.4067 1.98179 73.7781C1.35317 73.1494 1 72.2967 1 71.4076Z" fill="#361281" stroke="#D5FF2F" stroke-width="2" stroke-miterlimit="10"/>
<path d="M94.2959 31.6836C94.2966 31.0208 94.4937 30.373 94.8625 29.8222C95.2312 29.2713 95.755 28.8422 96.3675 28.589C96.9801 28.3358 97.654 28.2699 98.304 28.3996C98.954 28.5293 99.5509 28.8489 100.019 29.3178C100.488 29.7868 100.807 30.3841 100.936 31.0343C101.065 31.6845 100.998 32.3583 100.744 32.9707C100.491 33.583 100.061 34.1064 99.5099 34.4746C98.9587 34.8428 98.3107 35.0393 97.6479 35.0393C96.7586 35.0384 95.906 34.6845 95.2775 34.0553C94.649 33.426 94.2959 32.573 94.2959 31.6836Z" fill="#361281"/>
<path d="M94.2959 31.6836C94.2966 31.0208 94.4937 30.373 94.8625 29.8222C95.2312 29.2713 95.755 28.8422 96.3675 28.589C96.9801 28.3358 97.654 28.2699 98.304 28.3996C98.954 28.5293 99.5509 28.8489 100.019 29.3178C100.488 29.7868 100.807 30.3841 100.936 31.0343C101.065 31.6845 100.998 32.3583 100.744 32.9707C100.491 33.583 100.061 34.1064 99.5099 34.4746C98.9587 34.8428 98.3107 35.0393 97.6479 35.0393C96.7586 35.0384 95.906 34.6845 95.2775 34.0553C94.649 33.426 94.2959 32.573 94.2959 31.6836Z" fill="#361281" stroke="#D5FF2F" stroke-width="2" stroke-miterlimit="10"/>
<path d="M94.2959 71.4077C94.2959 70.7447 94.4925 70.0966 94.8608 69.5453C95.2292 68.994 95.7527 68.5644 96.3652 68.3107C96.9777 68.0569 97.6516 67.9905 98.3019 68.1199C98.9521 68.2492 99.5494 68.5685 100.018 69.0373C100.487 69.5062 100.806 70.1035 100.936 70.7537C101.065 71.404 100.999 72.078 100.745 72.6906C100.491 73.3031 100.061 73.8267 99.5102 74.195C98.959 74.5634 98.3109 74.76 97.6479 74.76C96.7589 74.76 95.9063 74.4068 95.2777 73.7781C94.6491 73.1495 94.2959 72.2968 94.2959 71.4077Z" fill="#361281"/>
<path d="M94.2959 71.4077C94.2959 70.7447 94.4925 70.0966 94.8608 69.5453C95.2292 68.994 95.7527 68.5644 96.3652 68.3107C96.9777 68.0569 97.6516 67.9905 98.3019 68.1199C98.9521 68.2492 99.5494 68.5685 100.018 69.0373C100.487 69.5062 100.806 70.1035 100.936 70.7537C101.065 71.404 100.999 72.078 100.745 72.6906C100.491 73.3031 100.061 73.8267 99.5102 74.195C98.959 74.5634 98.3109 74.76 97.6479 74.76C96.7589 74.76 95.9063 74.4068 95.2777 73.7781C94.6491 73.1495 94.2959 72.2968 94.2959 71.4077Z" fill="#361281" stroke="#D5FF2F" stroke-width="2" stroke-miterlimit="10"/>
<path d="M66.6128 97.6477C66.6128 96.9847 66.8094 96.3366 67.1777 95.7853C67.546 95.234 68.0696 94.8044 68.6821 94.5506C69.2946 94.2969 69.9685 94.2305 70.6188 94.3599C71.269 94.4892 71.8663 94.8085 72.3351 95.2773C72.8039 95.7461 73.1231 96.3435 73.2524 96.9937C73.3818 97.644 73.3154 98.318 73.0617 98.9306C72.808 99.5431 72.3784 100.067 71.8271 100.435C71.2759 100.803 70.6278 101 69.9648 101C69.5245 101 69.0884 100.914 68.6815 100.746C68.2746 100.577 67.9049 100.331 67.5936 100.019C67.2822 99.7078 67.0353 99.338 66.867 98.9311C66.6987 98.5242 66.6123 98.0881 66.6128 97.6477Z" fill="#361281"/>
<path d="M66.6128 97.6477C66.6128 96.9847 66.8094 96.3366 67.1777 95.7853C67.546 95.234 68.0696 94.8044 68.6821 94.5506C69.2946 94.2969 69.9685 94.2305 70.6188 94.3599C71.269 94.4892 71.8663 94.8085 72.3351 95.2773C72.8039 95.7461 73.1231 96.3435 73.2524 96.9937C73.3818 97.644 73.3154 98.318 73.0617 98.9306C72.808 99.5431 72.3784 100.067 71.8271 100.435C71.2759 100.803 70.6278 101 69.9648 101C69.5245 101 69.0884 100.914 68.6815 100.746C68.2746 100.577 67.9049 100.331 67.5936 100.019C67.2822 99.7078 67.0353 99.338 66.867 98.9311C66.6987 98.5242 66.6123 98.0881 66.6128 97.6477Z" fill="#361281" stroke="#D5FF2F" stroke-width="2" stroke-miterlimit="10"/>
<path d="M28.7035 97.6477C28.7035 96.9847 28.9001 96.3366 29.2684 95.7853C29.6367 95.234 30.1603 94.8044 30.7728 94.5506C31.3853 94.2969 32.0593 94.2305 32.7095 94.3599C33.3597 94.4892 33.957 94.8085 34.4258 95.2773C34.8946 95.7461 35.2138 96.3435 35.3432 96.9937C35.4725 97.644 35.4061 98.318 35.1524 98.9306C34.8987 99.5431 34.4691 100.067 33.9178 100.435C33.3666 100.803 32.7185 101 32.0555 101C31.6152 101 31.1791 100.914 30.7722 100.746C30.3653 100.577 29.9956 100.331 29.6843 100.019C29.3729 99.7078 29.126 99.338 28.9577 98.9311C28.7894 98.5242 28.703 98.0881 28.7035 97.6477Z" fill="#361281"/>
<path d="M28.7035 97.6477C28.7035 96.9847 28.9001 96.3366 29.2684 95.7853C29.6367 95.234 30.1603 94.8044 30.7728 94.5506C31.3853 94.2969 32.0593 94.2305 32.7095 94.3599C33.3597 94.4892 33.957 94.8085 34.4258 95.2773C34.8946 95.7461 35.2138 96.3435 35.3432 96.9937C35.4725 97.644 35.4061 98.318 35.1524 98.9306C34.8987 99.5431 34.4691 100.067 33.9178 100.435C33.3666 100.803 32.7185 101 32.0555 101C31.6152 101 31.1791 100.914 30.7722 100.746C30.3653 100.577 29.9956 100.331 29.6843 100.019C29.3729 99.7078 29.126 99.338 28.9577 98.9311C28.7894 98.5242 28.703 98.0881 28.7035 97.6477Z" fill="#361281" stroke="#D5FF2F" stroke-width="2" stroke-miterlimit="10"/>
</svg>
