<svg viewBox="0 0 103 102" fill="none" xmlns="http://www.w3.org/2000/svg">
<path d="M50.9764 5.15991L13.3911 23.3081L4.11035 64.0863L30.118 96.7874H71.8347L97.8424 64.0863L88.5583 23.3081L50.9764 5.15991Z" stroke="#D5FF2F" stroke-width="2" stroke-miterlimit="10"/>
<path d="M50.9764 30.7605L33.3522 39.2706L28.9998 58.3891L41.1967 73.7241H60.756L72.953 58.3891L68.6005 39.2706L50.9764 30.7605Z" stroke="#D5FF2F" stroke-width="2" stroke-miterlimit="10"/>
<path d="M50.8491 5.21021V30.6869" stroke="#D5FF2F" stroke-width="2" stroke-miterlimit="10"/>
<path d="M33.4829 39.3917L13.5419 23.2678" stroke="#D5FF2F" stroke-width="2" stroke-miterlimit="10"/>
<path d="M4.21741 64.2206L28.9796 58.7385" stroke="#D5FF2F" stroke-width="2" stroke-miterlimit="10"/>
<path d="M41.2 73.573L30.2653 96.787" stroke="#D5FF2F" stroke-width="2" stroke-miterlimit="10"/>
<path d="M60.8163 73.573L71.751 96.787" stroke="#D5FF2F" stroke-width="2" stroke-miterlimit="10"/>
<path d="M73.0366 58.4163L97.7988 64.2206" stroke="#D5FF2F" stroke-width="2" stroke-miterlimit="10"/>
<path d="M68.5334 39.3917L88.4745 23.2678" stroke="#D5FF2F" stroke-width="2" stroke-miterlimit="10"/>
<path d="M50.8491 5.21021L33.4828 39.3917" stroke="#D5FF2F" stroke-width="2" stroke-miterlimit="10"/>
<path d="M68.5335 39.3917L50.8491 5.21021" stroke="#D5FF2F" stroke-width="2" stroke-miterlimit="10"/>
<path d="M13.5419 23.2678L50.8492 30.6869" stroke="#D5FF2F" stroke-width="2" stroke-miterlimit="10"/>
<path d="M28.9797 58.7385L13.5419 23.2678" stroke="#D5FF2F" stroke-width="2" stroke-miterlimit="10"/>
<path d="M4.21741 64.2206L33.4827 39.3918" stroke="#D5FF2F" stroke-width="2" stroke-miterlimit="10"/>
<path d="M30.2654 96.7874L28.9797 58.7385" stroke="#D5FF2F" stroke-width="2" stroke-miterlimit="10"/>
<path d="M60.8162 73.573L30.2653 96.787" stroke="#D5FF2F" stroke-width="2" stroke-miterlimit="10"/>
<path d="M71.7509 96.787L41.2 73.573" stroke="#D5FF2F" stroke-width="2" stroke-miterlimit="10"/>
<path d="M97.7988 64.2205L60.8163 73.5732" stroke="#D5FF2F" stroke-width="2" stroke-miterlimit="10"/>
<path d="M73.0367 58.4163L71.751 96.7874" stroke="#D5FF2F" stroke-width="2" stroke-miterlimit="10"/>
<path d="M4.21741 64.2205L41.2 73.5732" stroke="#D5FF2F" stroke-width="2" stroke-miterlimit="10"/>
<path d="M50.8491 30.6869L88.4745 23.2678" stroke="#D5FF2F" stroke-width="2" stroke-miterlimit="10"/>
<path d="M68.5334 39.3918L97.7988 64.2206" stroke="#D5FF2F" stroke-width="2" stroke-miterlimit="10"/>
<path d="M73.0366 58.4162L88.4745 23.2678" stroke="#D5FF2F" stroke-width="2" stroke-miterlimit="10"/>
<path d="M47.6317 5.19659C47.6317 4.55852 47.8204 3.93478 48.1739 3.40425C48.5275 2.87371 49.03 2.46022 49.6179 2.21604C50.2058 1.97186 50.8527 1.90797 51.4769 2.03245C52.101 2.15693 52.6743 2.46419 53.1243 2.91537C53.5743 3.36655 53.8807 3.9414 54.0048 4.56721C54.129 5.19301 54.0653 5.84168 53.8217 6.43118C53.5782 7.02067 53.1658 7.52453 52.6367 7.87902C52.1076 8.23351 51.4855 8.42272 50.8492 8.42272C50.4265 8.42316 50.0079 8.34002 49.6174 8.17805C49.2268 8.01608 48.872 7.77846 48.5731 7.4788C48.2743 7.17913 48.0372 6.82331 47.8757 6.4317C47.7142 6.04009 47.6313 5.62038 47.6317 5.19659Z" fill="#361281"/>
<path d="M52.0796 8.18816C53.7196 7.50703 54.4984 5.62181 53.8191 3.97741C53.1398 2.333 51.2596 1.55212 49.6196 2.23325C47.9796 2.91439 47.2008 4.7996 47.8801 6.444C48.5594 8.08841 50.4396 8.86929 52.0796 8.18816Z" fill="#361281" stroke="#D5FF2F" stroke-width="2" stroke-miterlimit="10"/>
<path d="M47.6317 30.6868C47.6311 30.0485 47.8192 29.4245 48.1723 28.8935C48.5254 28.3625 49.0277 27.9485 49.6156 27.7038C50.2034 27.4591 50.8505 27.3948 51.4748 27.5189C52.0992 27.643 52.6728 27.9499 53.1231 28.401C53.5734 28.852 53.8802 29.4269 54.0046 30.0528C54.129 30.6787 54.0655 31.3275 53.8221 31.9172C53.5786 32.5069 53.1663 33.011 52.6371 33.3656C52.1079 33.7202 51.4857 33.9095 50.8492 33.9095C49.9964 33.9095 49.1786 33.5701 48.5753 32.9658C47.972 32.3615 47.6326 31.5418 47.6317 30.6868Z" fill="#361281"/>
<path d="M52.0802 33.6623C53.7202 32.9811 54.499 31.0959 53.8197 29.4515C53.1404 27.8071 51.2602 27.0262 49.6202 27.7074C47.9802 28.3885 47.2014 30.2737 47.8807 31.9181C48.5601 33.5625 50.4402 34.3434 52.0802 33.6623Z" fill="#361281" stroke="#D5FF2F" stroke-width="2" stroke-miterlimit="10"/>
<path d="M30.252 39.7142C30.252 39.0761 30.4407 38.4524 30.7942 37.9218C31.1478 37.3913 31.6502 36.9778 32.2381 36.7336C32.8261 36.4894 33.473 36.4255 34.0971 36.55C34.7213 36.6745 35.2946 36.9818 35.7445 37.4329C36.1945 37.8841 36.501 38.459 36.6251 39.0848C36.7493 39.7106 36.6855 40.3593 36.442 40.9488C36.1985 41.5383 35.7861 42.0421 35.2569 42.3966C34.7278 42.7511 34.1058 42.9403 33.4694 42.9403C33.0468 42.9407 32.6282 42.8576 32.2377 42.6956C31.8471 42.5337 31.4922 42.296 31.1933 41.9964C30.8945 41.6967 30.6575 41.3409 30.496 40.9493C30.3345 40.5577 30.2515 40.138 30.252 39.7142Z" fill="#361281"/>
<path d="M30.252 39.7142C30.252 39.0761 30.4407 38.4524 30.7942 37.9218C31.1478 37.3913 31.6502 36.9778 32.2381 36.7336C32.8261 36.4894 33.473 36.4255 34.0971 36.55C34.7213 36.6745 35.2946 36.9818 35.7445 37.4329C36.1945 37.8841 36.501 38.459 36.6251 39.0848C36.7493 39.7106 36.6855 40.3593 36.442 40.9488C36.1985 41.5383 35.7861 42.0421 35.2569 42.3966C34.7278 42.7511 34.1058 42.9403 33.4694 42.9403C33.0468 42.9407 32.6282 42.8576 32.2377 42.6956C31.8471 42.5337 31.4922 42.296 31.1933 41.9964C30.8945 41.6967 30.6575 41.3409 30.496 40.9493C30.3345 40.5577 30.2515 40.138 30.252 39.7142Z" fill="#361281" stroke="#D5FF2F" stroke-width="2" stroke-miterlimit="10"/>
<path d="M25.7622 58.7386C25.7622 58.1005 25.9509 57.4768 26.3045 56.9462C26.658 56.4157 27.1605 56.0022 27.7484 55.758C28.3364 55.5138 28.9833 55.45 29.6074 55.5744C30.2315 55.6989 30.8048 56.0062 31.2548 56.4574C31.7048 56.9085 32.0112 57.4834 32.1354 58.1092C32.2595 58.735 32.1958 59.3837 31.9523 59.9732C31.7087 60.5627 31.2964 61.0665 30.7672 61.421C30.2381 61.7755 29.616 61.9647 28.9797 61.9647C28.557 61.9652 28.1385 61.882 27.7479 61.72C27.3573 61.5581 27.0025 61.3204 26.7036 61.0208C26.4047 60.7211 26.1678 60.3653 26.0062 59.9737C25.8447 59.5821 25.7618 59.1624 25.7622 58.7386Z" fill="#361281"/>
<path d="M30.2105 61.716C31.8504 61.0349 32.6293 59.1496 31.95 57.5052C31.2706 55.8608 29.3905 55.08 27.7505 55.7611C26.1105 56.4422 25.3317 58.3274 26.011 59.9718C26.6903 61.6162 28.5705 62.3971 30.2105 61.716Z" fill="#361281" stroke="#D5FF2F" stroke-width="2" stroke-miterlimit="10"/>
<path d="M37.9825 73.5735C37.9819 72.9353 38.17 72.3112 38.5232 71.7802C38.8763 71.2493 39.3786 70.8352 39.9664 70.5905C40.5543 70.3458 41.2013 70.2815 41.8257 70.4056C42.45 70.5297 43.0236 70.8367 43.4739 71.2877C43.9242 71.7388 44.231 72.3136 44.3555 72.9395C44.4799 73.5654 44.4164 74.2142 44.1729 74.8039C43.9295 75.3936 43.5171 75.8977 42.9879 76.2523C42.4587 76.607 41.8365 76.7963 41.2 76.7963C40.3473 76.7963 39.5294 76.4568 38.9261 75.8525C38.3228 75.2482 37.9834 74.4285 37.9825 73.5735Z" fill="#361281"/>
<path d="M42.4316 76.5505C44.0716 75.8693 44.8505 73.9841 44.1712 72.3397C43.4918 70.6953 41.6116 69.9144 39.9717 70.5956C38.3317 71.2767 37.5529 73.1619 38.2322 74.8063C38.9115 76.4507 40.7917 77.2316 42.4316 76.5505Z" fill="#361281" stroke="#D5FF2F" stroke-width="2" stroke-miterlimit="10"/>
<path d="M57.2808 73.5735C57.2801 72.9351 57.4683 72.3109 57.8216 71.7799C58.1749 71.2488 58.6774 70.8348 59.2654 70.5902C59.8535 70.3456 60.5007 70.2814 61.1251 70.4058C61.7496 70.5302 62.3232 70.8375 62.7733 71.2889C63.2235 71.7403 63.53 72.3154 63.6541 72.9416C63.7781 73.5677 63.7141 74.2166 63.4702 74.8063C63.2262 75.3959 62.8133 75.8997 62.2837 76.2539C61.754 76.6082 61.1315 76.7969 60.4949 76.7963C59.6424 76.7963 58.8249 76.4567 58.2222 75.8523C57.6194 75.2479 57.2808 74.4282 57.2808 73.5735Z" fill="#361281"/>
<path d="M57.2808 73.5735C57.2801 72.9351 57.4683 72.3109 57.8216 71.7799C58.1749 71.2488 58.6774 70.8348 59.2654 70.5902C59.8535 70.3456 60.5007 70.2814 61.1251 70.4058C61.7496 70.5302 62.3232 70.8375 62.7733 71.2889C63.2235 71.7403 63.53 72.3154 63.6541 72.9416C63.7781 73.5677 63.7141 74.2166 63.4702 74.8063C63.2262 75.3959 62.8133 75.8997 62.2837 76.2539C61.754 76.6082 61.1315 76.7969 60.4949 76.7963C59.6424 76.7963 58.8249 76.4567 58.2222 75.8523C57.6194 75.2479 57.2808 74.4282 57.2808 73.5735Z" fill="#361281" stroke="#D5FF2F" stroke-width="2" stroke-miterlimit="10"/>
<path d="M69.8225 58.4163C69.8225 57.7781 70.0113 57.1542 70.365 56.6236C70.7187 56.093 71.2214 55.6795 71.8095 55.4354C72.3976 55.1914 73.0447 55.1277 73.6689 55.2524C74.2931 55.3772 74.8665 55.6848 75.3163 56.1363C75.7661 56.5878 76.0723 57.163 76.1961 57.789C76.3198 58.415 76.2557 59.0638 76.0116 59.6532C75.7676 60.2427 75.3546 60.7463 74.8251 61.1004C74.2955 61.4545 73.6732 61.6431 73.0367 61.6425C72.6143 61.6425 72.1961 61.559 71.8059 61.3968C71.4157 61.2346 71.0613 60.9969 70.7628 60.6973C70.4643 60.3977 70.2275 60.042 70.0662 59.6506C69.9049 59.2593 69.8221 58.8398 69.8225 58.4163Z" fill="#361281"/>
<path d="M69.8225 58.4163C69.8225 57.7781 70.0113 57.1542 70.365 56.6236C70.7187 56.093 71.2214 55.6795 71.8095 55.4354C72.3976 55.1914 73.0447 55.1277 73.6689 55.2524C74.2931 55.3772 74.8665 55.6848 75.3163 56.1363C75.7661 56.5878 76.0723 57.163 76.1961 57.789C76.3198 58.415 76.2557 59.0638 76.0116 59.6532C75.7676 60.2427 75.3546 60.7463 74.8251 61.1004C74.2955 61.4545 73.6732 61.6431 73.0367 61.6425C72.6143 61.6425 72.1961 61.559 71.8059 61.3968C71.4157 61.2346 71.0613 60.9969 70.7628 60.6973C70.4643 60.3977 70.2275 60.042 70.0662 59.6506C69.9049 59.2593 69.8221 58.8398 69.8225 58.4163Z" fill="#361281" stroke="#D5FF2F" stroke-width="2" stroke-miterlimit="10"/>
<path d="M65.3195 39.3919C65.3195 38.7537 65.5082 38.1298 65.8619 37.5992C66.2156 37.0686 66.7183 36.6551 67.3064 36.411C67.8945 36.1669 68.5417 36.1033 69.1659 36.228C69.7901 36.3528 70.3634 36.6604 70.8132 37.1119C71.2631 37.5634 71.5693 38.1385 71.693 38.7646C71.8168 39.3906 71.7526 40.0394 71.5085 40.6288C71.2645 41.2183 70.8516 41.7219 70.322 42.076C69.7925 42.43 69.1701 42.6187 68.5336 42.618C68.1112 42.618 67.693 42.5346 67.3028 42.3724C66.9127 42.2102 66.5582 41.9725 66.2597 41.6729C65.9612 41.3733 65.7245 41.0176 65.5632 40.6262C65.4018 40.2348 65.319 39.8154 65.3195 39.3919Z" fill="#361281"/>
<path d="M65.3195 39.3919C65.3195 38.7537 65.5082 38.1298 65.8619 37.5992C66.2156 37.0686 66.7183 36.6551 67.3064 36.411C67.8945 36.1669 68.5417 36.1033 69.1659 36.228C69.7901 36.3528 70.3634 36.6604 70.8132 37.1119C71.2631 37.5634 71.5693 38.1385 71.693 38.7646C71.8168 39.3906 71.7526 40.0394 71.5085 40.6288C71.2645 41.2183 70.8516 41.7219 70.322 42.076C69.7925 42.43 69.1701 42.6187 68.5336 42.618C68.1112 42.618 67.693 42.5346 67.3028 42.3724C66.9127 42.2102 66.5582 41.9725 66.2597 41.6729C65.9612 41.3733 65.7245 41.0176 65.5632 40.6262C65.4018 40.2348 65.319 39.8154 65.3195 39.3919Z" fill="#361281" stroke="#D5FF2F" stroke-width="2" stroke-miterlimit="10"/>
<path d="M85.2571 23.2679C85.2571 22.6298 85.4458 22.0061 85.7993 21.4755C86.1528 20.945 86.6554 20.5315 87.2433 20.2873C87.8312 20.0431 88.4781 19.9793 89.1022 20.1037C89.7264 20.2282 90.2997 20.5355 90.7497 20.9867C91.1996 21.4378 91.506 22.0127 91.6302 22.6385C91.7543 23.2643 91.6906 23.913 91.4471 24.5025C91.2036 25.092 90.7912 25.5958 90.2621 25.9503C89.733 26.3048 89.1109 26.494 88.4746 26.494C88.0519 26.4945 87.6333 26.4113 87.2427 26.2493C86.8522 26.0874 86.4973 25.8497 86.1985 25.5501C85.8996 25.2504 85.6626 24.8946 85.5011 24.503C85.3395 24.1114 85.2566 23.6917 85.2571 23.2679Z" fill="#361281"/>
<path d="M85.2571 23.2679C85.2571 22.6298 85.4458 22.0061 85.7993 21.4755C86.1528 20.945 86.6554 20.5315 87.2433 20.2873C87.8312 20.0431 88.4781 19.9793 89.1022 20.1037C89.7264 20.2282 90.2997 20.5355 90.7497 20.9867C91.1996 21.4378 91.506 22.0127 91.6302 22.6385C91.7543 23.2643 91.6906 23.913 91.4471 24.5025C91.2036 25.092 90.7912 25.5958 90.2621 25.9503C89.733 26.3048 89.1109 26.494 88.4746 26.494C88.0519 26.4945 87.6333 26.4113 87.2427 26.2493C86.8522 26.0874 86.4973 25.8497 86.1985 25.5501C85.8996 25.2504 85.6626 24.8946 85.5011 24.503C85.3395 24.1114 85.2566 23.6917 85.2571 23.2679Z" fill="#361281" stroke="#D5FF2F" stroke-width="2" stroke-miterlimit="10"/>
<path d="M10.0063 23.2679C10.0063 22.6297 10.1951 22.0058 10.5488 21.4752C10.9025 20.9446 11.4052 20.5311 11.9933 20.287C12.5814 20.0429 13.2285 19.9792 13.8528 20.104C14.477 20.2287 15.0503 20.5363 15.5001 20.9879C15.9499 21.4394 16.2561 22.0145 16.3799 22.6406C16.5036 23.2666 16.4395 23.9154 16.1954 24.5048C15.9514 25.0942 15.5385 25.5979 15.0089 25.9519C14.4794 26.306 13.857 26.4947 13.2205 26.494C12.7981 26.494 12.3799 26.4105 11.9897 26.2484C11.5995 26.0862 11.2451 25.8485 10.9466 25.5489C10.6481 25.2493 10.4114 24.8936 10.2501 24.5022C10.0887 24.1108 10.0059 23.6914 10.0063 23.2679Z" fill="#361281"/>
<path d="M14.4507 26.2472C16.0907 25.5661 16.8695 23.6809 16.1902 22.0365C15.5108 20.3921 13.6307 19.6112 11.9907 20.2923C10.3507 20.9735 9.57193 22.8587 10.2512 24.5031C10.9305 26.1475 12.8107 26.9284 14.4507 26.2472Z" fill="#361281" stroke="#D5FF2F" stroke-width="2" stroke-miterlimit="10"/>
<path d="M1 64.22C1 63.582 1.18872 62.9582 1.54226 62.4277C1.8958 61.8971 2.39827 61.4837 2.98619 61.2395C3.57411 60.9953 4.22106 60.9314 4.84519 61.0559C5.46932 61.1804 6.0426 61.4876 6.49257 61.9388C6.94254 62.39 7.24901 62.9648 7.37315 63.5906C7.4973 64.2165 7.43358 64.8651 7.19006 65.4546C6.94653 66.0441 6.53411 66.548 6.005 66.9025C5.47588 67.2569 4.85383 67.4462 4.21747 67.4462C3.79483 67.4466 3.37626 67.3635 2.9857 67.2015C2.59514 67.0395 2.24025 66.8019 1.9414 66.5022C1.64254 66.2026 1.40557 65.8467 1.24404 65.4551C1.0825 65.0635 0.999561 64.6438 1 64.22Z" fill="#361281"/>
<path d="M1 64.22C1 63.582 1.18872 62.9582 1.54226 62.4277C1.8958 61.8971 2.39827 61.4837 2.98619 61.2395C3.57411 60.9953 4.22106 60.9314 4.84519 61.0559C5.46932 61.1804 6.0426 61.4876 6.49257 61.9388C6.94254 62.39 7.24901 62.9648 7.37315 63.5906C7.4973 64.2165 7.43358 64.8651 7.19006 65.4546C6.94653 66.0441 6.53411 66.548 6.005 66.9025C5.47588 67.2569 4.85383 67.4462 4.21747 67.4462C3.79483 67.4466 3.37626 67.3635 2.9857 67.2015C2.59514 67.0395 2.24025 66.8019 1.9414 66.5022C1.64254 66.2026 1.40557 65.8467 1.24404 65.4551C1.0825 65.0635 0.999561 64.6438 1 64.22Z" fill="#361281" stroke="#D5FF2F" stroke-width="2" stroke-miterlimit="10"/>
<path d="M27.0511 96.7874C27.0511 96.1492 27.24 95.5253 27.5937 94.9947C27.9473 94.4641 28.45 94.0506 29.0382 93.8065C29.6263 93.5625 30.2733 93.4988 30.8976 93.6235C31.5218 93.7483 32.0951 94.0559 32.5449 94.5074C32.9948 94.9589 33.3009 95.5341 33.4247 96.1601C33.5485 96.7861 33.4843 97.4349 33.2403 98.0243C32.9962 98.6138 32.5833 99.1174 32.0537 99.4715C31.5242 99.8256 30.9018 100.014 30.2653 100.014C29.8429 100.014 29.4247 99.9301 29.0345 99.7679C28.6443 99.6057 28.2899 99.368 27.9914 99.0684C27.6929 98.7688 27.4562 98.4131 27.2949 98.0217C27.1335 97.6303 27.0507 97.2109 27.0511 96.7874Z" fill="#361281"/>
<path d="M27.0511 96.7874C27.0511 96.1492 27.24 95.5253 27.5937 94.9947C27.9473 94.4641 28.45 94.0506 29.0382 93.8065C29.6263 93.5625 30.2733 93.4988 30.8976 93.6235C31.5218 93.7483 32.0951 94.0559 32.5449 94.5074C32.9948 94.9589 33.3009 95.5341 33.4247 96.1601C33.5485 96.7861 33.4843 97.4349 33.2403 98.0243C32.9962 98.6138 32.5833 99.1174 32.0537 99.4715C31.5242 99.8256 30.9018 100.014 30.2653 100.014C29.8429 100.014 29.4247 99.9301 29.0345 99.7679C28.6443 99.6057 28.2899 99.368 27.9914 99.0684C27.6929 98.7688 27.4562 98.4131 27.2949 98.0217C27.1335 97.6303 27.0507 97.2109 27.0511 96.7874Z" fill="#361281" stroke="#D5FF2F" stroke-width="2" stroke-miterlimit="10"/>
<path d="M68.5334 96.7874C68.5334 96.1493 68.7222 95.5256 69.0757 94.9951C69.4293 94.4645 69.9318 94.051 70.5197 93.8069C71.1076 93.5627 71.7545 93.4988 72.3786 93.6233C73.0028 93.7478 73.576 94.055 74.026 94.5062C74.476 94.9574 74.7825 95.5322 74.9066 96.158C75.0307 96.7838 74.967 97.4325 74.7235 98.022C74.48 98.6115 74.0676 99.1153 73.5385 99.4698C73.0094 99.8243 72.3873 100.014 71.7509 100.014C71.3283 100.014 70.9097 99.9308 70.5191 99.7689C70.1286 99.6069 69.7737 99.3693 69.4748 99.0696C69.176 98.77 68.939 98.4141 68.7775 98.0225C68.6159 97.6309 68.533 97.2112 68.5334 96.7874Z" fill="#361281"/>
<path d="M72.9814 99.7663C74.6214 99.0851 75.4003 97.1999 74.721 95.5555C74.0416 93.9111 72.1615 93.1302 70.5215 93.8114C68.8815 94.4925 68.1027 96.3777 68.782 98.0221C69.4613 99.6665 71.3415 100.447 72.9814 99.7663Z" fill="#361281" stroke="#D5FF2F" stroke-width="2" stroke-miterlimit="10"/>
<path d="M94.5847 64.2205C94.5847 63.5823 94.7735 62.9584 95.1272 62.4278C95.4809 61.8972 95.9836 61.4837 96.5717 61.2396C97.1598 60.9956 97.8069 60.9319 98.4311 61.0566C99.0554 61.1814 99.6286 61.489 100.078 61.9405C100.528 62.392 100.834 62.9672 100.958 63.5932C101.082 64.2192 101.018 64.868 100.774 65.4574C100.53 66.0469 100.117 66.5505 99.5873 66.9046C99.0577 67.2587 98.4353 67.4473 97.7988 67.4466C97.3765 67.4466 96.9583 67.3632 96.5681 67.201C96.1779 67.0388 95.8234 66.8011 95.5249 66.5015C95.2264 66.2019 94.9898 65.8462 94.8284 65.4548C94.6671 65.0635 94.5843 64.644 94.5847 64.2205Z" fill="#361281"/>
<path d="M99.0305 67.197C100.671 66.5158 101.449 64.6306 100.77 62.9862C100.091 61.3418 98.2105 60.5609 96.5705 61.242C94.9305 61.9232 94.1518 63.8084 94.8311 65.4528C95.5104 67.0972 97.3905 67.8781 99.0305 67.197Z" fill="#361281" stroke="#D5FF2F" stroke-width="2" stroke-miterlimit="10"/>
</svg>
