<svg viewBox="0 0 207 206" fill="none" xmlns="http://www.w3.org/2000/svg">
<path d="M114.191 2.03438C111.816 0.863057 109.07 0.678586 106.557 1.52153L39.3318 24.077C36.8187 24.9203 34.745 26.7225 33.567 29.0873L2.04048 92.3781C0.862523 94.7429 0.67676 97.4765 1.52405 99.9776L24.179 166.852C25.0263 169.353 26.8373 171.417 29.2135 172.589L92.8097 203.965C95.186 205.137 97.9328 205.322 100.446 204.478L167.67 181.923C170.183 181.08 172.257 179.278 173.435 176.913L204.961 113.622C206.139 111.258 206.325 108.524 205.478 106.023L182.814 39.1231C181.967 36.6212 180.155 34.557 177.778 33.3849L114.191 2.03438ZM155.432 102.662C156.278 105.163 156.092 107.895 154.914 110.259L140.449 139.299C139.271 141.664 137.197 143.466 134.684 144.31L103.835 154.66C101.322 155.503 98.575 155.318 96.1988 154.146L67.02 139.751C64.6438 138.578 62.8328 136.515 61.9855 134.014L51.5829 103.306C50.7356 100.805 50.9214 98.0716 52.0993 95.7068L66.5642 66.6681C67.7421 64.3033 69.8158 62.501 72.329 61.6578L103.191 51.3029C105.704 50.4597 108.451 50.6446 110.827 51.8169L140.004 66.2114C142.382 67.3842 144.193 69.4492 145.04 71.9517L155.432 102.662Z" stroke="#D5FF2F" stroke-width="2" stroke-miterlimit="10"/>
<g clip-path="url(#clip0_1_878)">
<path d="M118.214 96.1678C118.039 95.5618 117.699 95.0132 117.229 94.5803C116.746 94.134 116.154 93.8148 115.509 93.6528C113.094 93.034 103.421 93.034 103.421 93.034C99.3878 92.9894 95.3559 93.1856 91.3478 93.6215C90.7026 93.7955 90.1117 94.1219 89.6275 94.5715C89.1518 95.0165 88.8072 95.5653 88.6272 96.1665C88.1949 98.4312 87.9848 100.731 87.9998 103.034C87.9844 105.335 88.194 107.634 88.6272 109.902C88.8034 110.5 89.1467 111.047 89.6237 111.488C90.1007 111.929 90.6947 112.248 91.3478 112.417C93.7945 113.034 103.421 113.034 103.421 113.034C107.459 113.079 111.496 112.882 115.509 112.447C116.154 112.284 116.746 111.965 117.229 111.519C117.699 111.086 118.039 110.538 118.213 109.932C118.657 107.668 118.872 105.367 118.857 103.063C118.89 100.749 118.675 98.4372 118.214 96.1665V96.1678ZM100.345 107.314V98.7553L108.394 103.035L100.345 107.314Z" fill="#D5FF2F"/>
</g>
<defs>
<clipPath id="clip0_1_878">
<rect width="30.8571" height="30" fill="white" transform="translate(88 88.0342)"/>
</clipPath>
</defs>
</svg>
